<svg xmlns="http://www.w3.org/2000/svg" xmlns:xlink="http://www.w3.org/1999/xlink" viewBox="0 0 1158.86 866.56"><defs><linearGradient id="linear-gradient" x1="579.43" y1="866.56" x2="579.43" gradientUnits="userSpaceOnUse"><stop offset="0" stop-color="#fff"/><stop offset="0.08" stop-color="#ededed"/><stop offset="0.23" stop-color="#cfcfcf"/><stop offset="0.4" stop-color="#b7b7b7"/><stop offset="0.57" stop-color="#a6a6a6"/><stop offset="0.76" stop-color="#9c9c9c"/><stop offset="1" stop-color="#999"/></linearGradient><linearGradient id="linear-gradient-2" x1="523.65" y1="-480.62" x2="-489.43" y2="329.85" gradientTransform="translate(566.71 505.22) rotate(-0.06)" gradientUnits="userSpaceOnUse"><stop offset="0" stop-color="#f2d052"/><stop offset="0.28" stop-color="#f0cb50"/><stop offset="0.63" stop-color="#ebbb4a"/><stop offset="1" stop-color="#e3a340"/></linearGradient></defs><g id="Layer_2" data-name="Layer 2"><g id="Layer_1-2" data-name="Layer 1"><path d="M114.89,866.56A114.42,114.42,0,0,1,.62,752.4L0,115.29A114.41,114.41,0,0,1,114.16.9L1043.85,0c63.06,0,114.32,51.21,114.39,114.16l.62,637.11a114.29,114.29,0,0,1-114.17,114.39l-929.68.9Z" style="fill:url(#linear-gradient)"/><path d="M1043.86,10.84l-929.69.9A103.44,103.44,0,0,0,10.84,115.28l.62,637.11A103.44,103.44,0,0,0,115,855.72l929.68-.9A103.43,103.43,0,0,0,1148,751.28l-.61-637.11A103.44,103.44,0,0,0,1043.86,10.84Z" style="fill:#494949"/><path d="M1036,18l-914,.89A101.7,101.7,0,0,0,20.41,120.63L21,747A101.7,101.7,0,0,0,122.81,848.61l914-.89a101.69,101.69,0,0,0,101.59-101.79l-.61-626.38A101.69,101.69,0,0,0,1036,18Z" style="fill:url(#linear-gradient-2)"/><polygon points="1138.32 617.64 736.21 618.03 735.8 196.82 1137.91 196.43 1137.92 206.32 745.69 206.7 746.08 608.14 1138.31 607.76 1138.32 617.64" style="fill:#494949"/><rect x="740.94" y="402.29" width="402.48" height="9.88" style="fill:#494949"/><polygon points="418.76 618.34 16.64 618.73 16.64 608.85 408.86 608.47 408.47 207.03 16.25 207.41 16.23 197.52 418.35 197.13 418.76 618.34" style="fill:#494949"/><rect x="11.13" y="403" width="402.48" height="9.88" style="fill:#494949"/><path d="M739.48,854.16a192.05,192.05,0,0,1-35.54-86.31c-3.65-24.94-2.62-51.31,3.06-78.38,9.65-46,29.12-77.66,30-79l8.39,5.21c-.19.32-19.49,31.78-28.73,76.12-12.3,59-1.92,111.69,30.85,156.52Z" style="fill:#494949"/><path d="M416.05,855.3l-8-5.81c32.68-44.91,42.94-97.73,30.49-157C429.19,648,409.8,616.32,409.61,616l8.4-5.21c.83,1.33,20.38,33.18,30.14,79.33,5.75,27.18,6.84,53.65,3.25,78.66A192,192,0,0,1,416.05,855.3Z" style="fill:#494949"/><path d="M417.77,204.41l-8.72-4.66a228.57,228.57,0,0,0,20-61.37c8.2-46.81.09-87.17-24.12-120l8-5.87A147.33,147.33,0,0,1,440,78.48c3,19.41,2.53,40.24-1.3,61.91C432.21,177.14,418.35,203.31,417.77,204.41Z" style="fill:#494949"/></g></g></svg>